PathFileType   4   (X/Y/Z)
DataRate	CameraRate	NumFrames	NumMarkers	Units	OrigDataRate	OrigDataStartFrame	OrigNumFrames
120.0	120.0	9	37	mm	120.0	1	184
Frame#	Time	midhip	hip_r	hip_l	knee_r	knee_l	ankle_r	ankle_l	midasis	asis_r	asis_l	psis_r	psis_l	epicondLat_r	epicondLat_l	epicondMed_r	epicondMed_l	malleolusLat_r	malleolusLat_l	malleolusMedv_r	malleolusMedv_l	neck	subclavicle_r	subclavicle_l	sternalnotch	xyphoidprocess	thighwand_r	thighwand_l	upperleg1_r	upperleg1_l	upperleg2_r	upperleg2_l	shankwand_r	shankwand_l	lowerleg1_r	lowerleg1_l	toe_r	toe_l
 	 	X1	Y1	Z1	X2	Y2	Z2	X3	Y3	Z3	X4	Y4	Z4	X5	Y5	Z5	X6	Y6	Z6	X7	Y7	Z7	X8	Y8	Z8	X9	Y9	Z9	X10	Y10	Z10	X11	Y11	Z11	X12	Y12	Z12	X13	Y13	Z13	X14	Y14	Z14	X15	Y15	Z15	X16	Y16	Z16	X17	Y17	Z17	X18	Y18	Z18	X19	Y19	Z19	X20	Y20	Z20	X21	Y21	Z21	X22	Y22	Z22	X23	Y23	Z23	X24	Y24	Z24	X25	Y25	Z25	X26	Y26	Z26	X27	Y27	Z27	X28	Y28	Z28	X29	Y29	Z29	X30	Y30	Z30	X31	Y31	Z31	X32	Y32	Z32	X33	Y33	Z33	X34	Y34	Z34	X35	Y35	Z35	X36	Y36	Z36	X37	Y37	Z37

	1	0.20833	-972.240	743.456	253.746	-995.855	730.368	313.398	-986.682	742.588	183.981	-1064.347	395.664	331.005	-973.442	421.482	193.810	-1276.278	127.329	309.014	-883.639	70.202	206.178	-925.759	809.066	260.187	-932.964	799.467	361.837	-918.554	818.664	158.538	-1084.658	837.394	285.904	-1084.302	838.422	231.283	-1081.727	401.946	382.808	-976.766	419.681	139.442	-1032.820	388.724	292.083	-965.573	398.521	234.754	-1293.212	138.107	340.690	-893.756	66.370	170.795	-1264.852	125.814	287.333	-876.243	78.297	233.792	-1104.946	1201.422	265.988	-987.321	1155.298	294.032	-995.854	1160.519	219.298	-1006.120	1154.954	256.711	-968.511	1076.909	249.390	-975.170	516.035	463.377	-828.281	550.387	173.701	-1024.955	572.567	404.440	-900.732	608.126	143.168	-1033.149	485.852	395.500	-906.516	522.632	146.671	-1257.483	247.224	415.721	-916.486	189.404	89.494	-1254.099	206.000	344.095	-917.058	151.476	164.355	-1241.281	46.411	352.965	-778.223	50.907	189.192
	2	0.21667	-966.851	743.851	251.607	-990.315	730.631	311.943	-981.313	742.842	182.514	-1054.776	395.414	332.101	-971.297	421.986	192.896	-1269.122	130.108	308.973	-883.470	69.972	205.512	-920.417	809.440	258.636	-927.484	799.855	360.241	-913.350	819.026	157.031	-1079.432	837.348	284.476	-1079.143	838.711	229.853	-1072.174	401.873	383.876	-974.967	420.113	138.552	-1023.220	387.727	293.574	-964.680	399.621	233.875	-1286.073	141.047	340.584	-893.957	66.092	170.243	-1257.667	127.832	287.512	-876.190	78.342	233.149	-1099.437	1201.701	264.147	-982.204	1155.374	292.514	-990.440	1160.772	217.684	-1000.860	1155.146	255.081	-963.368	1077.045	247.747	-966.878	517.262	463.772	-824.642	549.916	171.604	-1017.326	572.621	404.220	-896.899	608.206	141.648	-1024.591	485.853	396.092	-904.250	522.458	145.221	-1249.600	249.445	415.794	-916.789	189.232	88.760	-1246.003	208.012	344.215	-917.002	151.557	163.801	-1237.020	47.878	353.211	-778.222	50.554	188.753
	3	0.22500	-961.279	744.607	249.589	-984.979	730.832	310.627	-976.143	743.072	181.189	-1045.099	395.120	333.153	-969.501	422.447	191.984	-1261.620	132.808	308.728	-883.467	69.747	204.821	-915.235	809.730	257.250	-922.167	800.127	358.800	-908.302	819.333	155.699	-1074.348	837.268	283.133	-1074.048	839.056	228.535	-1062.500	401.709	384.910	-973.418	420.537	137.658	-1013.562	386.663	294.993	-965.509	400.747	232.529	-1278.561	143.851	340.308	-894.308	65.823	169.663	-1250.241	129.841	287.309	-876.283	78.425	232.405	-1094.105	1201.934	262.135	-977.267	1155.371	291.058	-985.188	1160.993	216.110	-995.771	1155.283	253.497	-958.399	1077.130	246.109	-958.554	518.401	464.141	-821.229	549.339	169.829	-1009.873	572.549	404.030	-893.206	608.203	140.375	-1016.056	485.664	396.663	-902.748	521.969	143.780	-1241.381	251.363	415.777	-917.281	189.096	88.013	-1237.718	209.874	344.181	-917.276	151.637	163.213	-1231.807	49.858	353.886	-778.346	50.400	188.284
	4	0.23333	-956.015	745.168	247.672	-979.836	731.006	309.431	-971.165	743.283	179.985	-1035.294	394.838	334.125	-967.951	422.876	191.064	-1253.775	135.395	308.287	-883.564	69.530	204.078	-910.211	809.964	255.987	-917.009	800.339	357.475	-903.413	819.590	154.500	-1069.411	837.188	281.872	-1069.058	839.438	227.292	-1052.688	401.509	385.874	-972.048	420.957	136.752	-1003.490	385.737	296.073	-964.548	401.458	231.506	-1270.692	146.496	339.860	-894.756	65.567	169.035	-1242.366	131.921	286.925	-876.438	78.536	231.549	-1089.198	1202.101	259.916	-972.392	1155.409	289.658	-980.026	1161.246	214.662	-990.752	1155.428	252.009	-953.349	1077.298	244.545	-950.186	519.484	464.476	-817.994	548.687	168.288	-1002.348	572.396	403.914	-889.728	608.095	139.227	-1007.339	485.306	397.101	-900.546	521.760	142.573	-1232.847	253.048	415.653	-917.920	188.980	87.237	-1229.184	211.626	343.904	-917.705	151.750	162.535	-1225.506	52.371	355.083	-778.574	50.370	187.752
	5	0.24167	-951.234	745.336	245.914	-974.885	731.178	308.328	-966.371	743.472	178.874	-1025.367	394.636	334.988	-966.557	423.282	190.146	-1245.529	137.784	307.728	-883.719	69.324	203.300	-905.353	810.169	254.812	-912.023	800.536	356.242	-898.683	819.802	153.381	-1064.633	837.144	280.678	-1064.197	839.824	226.103	-1042.744	401.342	386.739	-970.788	421.373	135.844	-993.377	384.821	297.007	-965.765	403.183	231.545	-1262.436	148.926	339.291	-895.244	65.329	168.368	-1233.671	133.819	286.736	-876.591	78.688	230.627	-1084.311	1202.307	257.779	-967.600	1155.524	288.302	-974.848	1161.532	213.263	-985.766	1155.628	250.549	-948.316	1077.518	243.102	-941.772	520.551	464.776	-814.917	548.003	166.907	-994.816	572.167	403.755	-886.472	607.912	138.171	-998.598	484.859	397.446	-899.559	521.402	141.800	-1224.030	254.593	415.397	-918.596	188.887	86.444	-1220.163	213.288	343.390	-918.402	151.631	161.755	-1218.051	55.343	356.826	-778.866	50.402	187.167
	6	0.25000	-946.770	745.361	244.356	-970.122	731.360	307.287	-961.744	743.647	177.823	-1015.314	394.550	335.745	-965.205	423.686	189.248	-1236.771	139.870	307.174	-883.909	69.126	202.536	-900.653	810.353	253.693	-907.214	800.731	355.086	-894.091	819.976	152.300	-1060.044	837.172	279.532	-1059.509	840.202	224.938	-1032.665	401.252	387.504	-969.541	421.794	134.953	-983.584	383.974	297.971	-957.217	401.955	231.180	-1253.725	151.077	338.689	-895.726	65.111	167.704	-1224.044	135.194	286.830	-876.733	78.888	229.739	-1079.454	1202.587	255.686	-962.881	1155.652	286.980	-969.698	1161.797	211.859	-980.832	1155.833	249.097	-943.383	1077.714	241.732	-933.310	521.643	465.047	-812.027	547.318	165.653	-987.297	571.966	403.618	-883.413	607.735	137.186	-989.947	484.475	397.823	-894.093	522.259	141.007	-1214.969	256.081	414.996	-919.179	188.822	85.655	-1210.725	214.830	342.867	-919.180	151.250	160.949	-1209.446	58.599	359.048	-779.175	50.452	186.579
	7	0.25833	-942.866	744.944	243.051	-965.527	731.571	306.283	-957.245	743.807	176.808	-1005.140	394.597	336.395	-963.779	424.104	188.391	-1227.396	141.557	306.741	-884.121	68.930	201.851	-896.082	810.529	252.606	-902.566	800.949	353.976	-889.598	820.109	151.236	-1055.650	837.294	278.421	-1054.973	840.570	223.779	-1022.461	401.260	388.170	-968.206	422.228	134.103	-973.776	383.498	298.798	-954.888	401.826	229.580	-1244.480	152.882	338.144	-896.179	64.909	167.103	-1213.815	136.046	287.072	-877.020	79.058	228.951	-1074.721	1202.948	253.634	-958.241	1155.856	285.671	-964.598	1162.033	210.478	-975.961	1156.065	247.663	-938.530	1077.919	240.500	-924.797	522.805	465.295	-809.338	546.665	164.502	-979.709	571.884	403.626	-880.478	607.651	136.205	-981.221	484.353	398.224	-891.403	522.230	139.770	-1205.678	257.551	414.453	-919.583	188.791	84.901	-1200.968	216.067	342.483	-919.522	151.150	160.152	-1199.772	61.888	361.561	-779.463	50.493	186.042
	8	0.26667	-939.444	744.184	241.888	-961.083	731.828	305.309	-952.869	743.954	175.819	-994.861	394.788	336.939	-962.219	424.539	187.607	-1217.345	142.765	306.524	-884.332	68.740	201.275	-891.632	810.711	251.528	-898.061	801.220	352.879	-885.204	820.201	150.176	-1051.405	837.515	277.336	-1050.594	840.931	222.620	-1012.148	401.382	388.734	-966.738	422.668	133.327	-962.073	383.036	300.610	-955.902	402.852	228.612	-1234.648	154.273	337.740	-896.584	64.726	166.594	-1203.164	136.577	287.422	-877.412	79.165	228.296	-1069.800	1203.459	251.705	-953.741	1156.144	284.446	-959.530	1162.308	209.176	-971.180	1156.380	246.292	-933.880	1078.145	239.436	-916.243	524.071	465.522	-806.815	546.088	163.423	-972.182	571.975	403.641	-877.664	607.521	135.210	-971.715	484.889	399.097	-890.345	521.808	138.745	-1196.138	258.985	413.807	-919.793	188.792	84.216	-1190.768	216.986	342.244	-919.479	151.375	159.392	-1189.151	64.963	364.115	-779.701	50.518	185.593
	9	0.27500	-935.813	743.837	240.792	-956.793	732.152	304.368	-948.667	744.099	174.856	-984.503	395.117	337.444	-960.511	424.991	186.921	-1206.609	143.464	306.567	-884.504	68.571	200.805	-887.337	810.922	250.430	-893.694	801.574	351.762	-880.979	820.270	149.098	-1047.230	837.820	276.270	-1046.351	841.283	221.469	-1001.748	401.621	389.264	-965.137	423.111	132.650	-946.727	382.353	304.614	-957.450	404.434	228.288	-1224.210	155.199	337.531	-896.928	64.573	166.183	-1192.082	136.837	287.858	-877.587	79.298	227.762	-1064.974	1204.029	249.656	-949.302	1156.478	283.317	-954.581	1162.733	207.953	-966.488	1156.788	245.017	-929.293	1078.488	238.332	-907.679	525.464	465.720	-804.379	545.609	162.385	-964.673	572.148	403.635	-874.888	607.436	134.136	-960.775	486.446	400.952	-889.625	521.335	137.930	-1186.309	260.311	413.136	-919.845	188.821	83.628	-1180.069	217.665	342.057	-919.266	151.653	158.751	-1177.685	67.666	366.517	-779.879	50.526	185.233
